<?xml version="1.0" standalone="no"?>
<!DOCTYPE svg PUBLIC "-//W3C//DTD SVG 20010904//EN"
 "http://www.w3.org/TR/2001/REC-SVG-20010904/DTD/svg10.dtd">
<svg version="1.0" xmlns="http://www.w3.org/2000/svg"
 width="512.000000pt" height="512.000000pt" viewBox="0 0 512.000000 512.000000"
 preserveAspectRatio="xMidYMid meet">

<g transform="translate(0.000000,512.000000) scale(0.100000,-0.100000)"
fill="#000000" stroke="none">
<path d="M2955 5025 c-161 -31 -324 -101 -447 -194 -82 -62 -190 -178 -252
-267 l-48 -72 -57 23 c-93 38 -222 58 -326 51 -206 -13 -373 -87 -516 -226
-92 -90 -142 -166 -185 -280 -18 -47 -39 -88 -46 -91 -7 -4 -49 -12 -93 -17
-101 -13 -247 -60 -347 -111 -556 -285 -782 -975 -503 -1536 64 -129 116 -201
221 -307 171 -173 385 -282 630 -323 89 -14 261 -16 1719 -13 l1620 3 72 22
c106 33 176 67 269 128 512 341 589 1059 159 1490 -125 126 -283 215 -451 256
-49 12 -94 23 -100 24 -7 2 -5 26 8 76 46 183 47 361 3 536 -101 398 -454 721
-895 818 -107 23 -335 28 -435 10z m405 -122 c413 -82 746 -395 824 -775 31
-149 16 -367 -34 -514 -23 -66 -25 -107 -7 -122 6 -6 47 -15 89 -21 158 -22
263 -60 377 -135 239 -159 381 -424 381 -712 0 -389 -263 -723 -650 -826 l-85
-23 -1605 0 c-1483 0 -1611 1 -1682 17 -432 97 -750 424 -824 850 -12 68 -15
126 -11 218 12 267 101 478 281 667 181 190 410 302 654 320 54 4 90 12 103
22 10 9 26 43 34 76 35 140 135 288 249 369 131 94 257 137 406 137 112 1 207
-19 292 -61 92 -46 102 -42 175 70 114 173 225 277 383 359 198 102 417 131
650 84z"/>
<path d="M1910 1510 c-20 -20 -20 -33 -20 -555 l0 -535 -212 2 -211 3 -14 42
c-20 58 -87 131 -148 159 -70 33 -170 33 -240 0 -62 -28 -126 -97 -150 -159
-26 -68 -17 -179 18 -240 68 -115 203 -172 327 -137 88 24 181 116 197 193 l6
27 251 0 c202 0 256 3 272 14 18 14 19 32 19 596 0 564 -1 582 -19 596 -27 19
-52 18 -76 -6z m-654 -989 c108 -49 131 -187 45 -272 -86 -86 -218 -65 -270
44 -26 53 -26 90 -2 143 41 90 137 126 227 85z"/>
<path d="M2502 1514 c-22 -15 -22 -16 -22 -338 l0 -323 -47 -18 c-72 -28 -148
-108 -169 -180 -40 -138 14 -273 136 -339 137 -75 306 -26 387 111 40 69 45
181 11 255 -32 69 -85 121 -154 149 l-54 23 0 321 c0 299 -1 323 -18 338 -23
21 -41 21 -70 1z m135 -810 c39 -30 73 -94 73 -139 0 -105 -111 -191 -212
-164 -114 30 -167 164 -103 260 53 81 166 101 242 43z"/>
<path d="M3092 1514 l-22 -15 0 -578 c0 -547 1 -579 18 -594 16 -15 52 -17
294 -17 l276 0 5 -27 c16 -77 109 -169 197 -193 124 -35 259 22 327 137 35 61
44 172 18 240 -24 62 -88 131 -150 159 -70 33 -170 33 -240 0 -61 -28 -128
-101 -148 -159 l-14 -42 -234 0 -234 0 -2 535 c-3 531 -3 535 -24 553 -26 21
-38 21 -67 1z m944 -1009 c40 -30 73 -94 74 -139 0 -42 -36 -112 -72 -137 -70
-50 -157 -43 -219 20 -63 63 -70 149 -19 221 52 73 165 89 236 35z"/>
</g>
</svg>
